<svg width="15" height="15" viewBox="0 0 15 15" fill="none" xmlns="http://www.w3.org/2000/svg">
<path d="M13.7495 6.24996H4.25804L8.38475 2.14085C8.62023 1.90566 8.75252 1.58668 8.75252 1.25408C8.75252 0.921478 8.62023 0.602498 8.38475 0.367312C8.14927 0.132126 7.8299 0 7.49688 0C7.16387 0 6.84449 0.132126 6.60901 0.367312L0.356415 6.61216C0.242567 6.73095 0.153324 6.87101 0.0938059 7.02433C-0.0312686 7.3284 -0.0312686 7.66947 0.0938059 7.97354C0.153324 8.12686 0.242567 8.26692 0.356415 8.3857L6.60901 14.6306C6.72527 14.7476 6.86357 14.8405 7.01596 14.9039C7.16835 14.9674 7.3318 15 7.49688 15C7.66197 15 7.82542 14.9674 7.9778 14.9039C8.13019 14.8405 8.2685 14.7476 8.38475 14.6306C8.50196 14.5144 8.59499 14.3763 8.65848 14.2241C8.72197 14.0719 8.75465 13.9087 8.75465 13.7438C8.75465 13.5789 8.72197 13.4157 8.65848 13.2635C8.59499 13.1113 8.50196 12.9731 8.38475 12.857L4.25804 8.7479H13.7495C14.0811 8.7479 14.3992 8.61632 14.6337 8.38209C14.8682 8.14786 15 7.83018 15 7.49893C15 7.16769 14.8682 6.85001 14.6337 6.61578C14.3992 6.38155 14.0811 6.24996 13.7495 6.24996Z" fill="white"/>
</svg>
