<svg width="17" height="23" viewBox="0 0 17 23" fill="none" xmlns="http://www.w3.org/2000/svg">
<path d="M11.2031 3.78125H5.26562C4.87194 3.78125 4.49439 3.94005 4.21601 4.2227C3.93764 4.50536 3.78125 4.88872 3.78125 5.28846V16.8438L8.23438 12.8245L12.6875 16.8438V5.28846C12.6875 4.88872 12.5311 4.50536 12.2527 4.2227C11.9744 3.94005 11.5968 3.78125 11.2031 3.78125Z" fill="#FD9E02"/>
<path d="M1 21C1 21.3986 1.23675 21.7592 1.60253 21.9176C1.96831 22.0761 2.39325 22.0021 2.68403 21.7295L8.23438 16.5247L13.7847 21.7295C14.0755 22.0021 14.5004 22.0761 14.8662 21.9176C15.232 21.7592 15.4688 21.3986 15.4688 21V4.19231C15.4688 3.3624 15.1567 2.55643 14.5858 1.95416C14.0132 1.35007 13.2248 1 12.3906 1H4.07812C3.24397 1 2.45554 1.35007 1.88291 1.95416C1.31201 2.55643 1 3.3624 1 4.19231V21Z" stroke="white" stroke-width="2" stroke-linecap="round" stroke-linejoin="round"/>
</svg>
