<svg width="17" height="15" viewBox="0 0 17 15" fill="none" xmlns="http://www.w3.org/2000/svg">
<path fill-rule="evenodd" clip-rule="evenodd" d="M7.95791 0.52296C8.02663 0.415599 8.12517 0.326501 8.24368 0.264569C8.36219 0.202638 8.49652 0.170044 8.63325 0.170044C8.76998 0.170044 8.90431 0.202638 9.02282 0.264569C9.14133 0.326501 9.23987 0.415599 9.30859 0.52296L11.6118 4.11638L16.0822 4.99528C16.216 5.0213 16.34 5.0788 16.4416 5.16203C16.5433 5.24525 16.6191 5.35128 16.6615 5.46949C16.7039 5.5877 16.7113 5.71395 16.683 5.83558C16.6548 5.95722 16.5918 6.06998 16.5005 6.16257L13.4514 9.26161L13.915 13.3815C13.9285 13.5049 13.9061 13.6294 13.85 13.7426C13.794 13.8557 13.7062 13.9535 13.5956 14.0262C13.4849 14.0989 13.3552 14.144 13.2193 14.157C13.0835 14.17 12.9463 14.1504 12.8214 14.1001L8.63325 12.4339L4.45016 14.1093C4.32527 14.1595 4.18806 14.1791 4.05221 14.1662C3.91637 14.1532 3.78665 14.1081 3.67599 14.0354C3.56532 13.9626 3.47759 13.8648 3.42153 13.7517C3.36547 13.6386 3.34305 13.5141 3.35651 13.3906L3.82018 9.27076L0.766022 6.15799C0.674688 6.0654 0.61174 5.95264 0.583481 5.83101C0.555223 5.70937 0.562647 5.58312 0.605009 5.46491C0.647371 5.3467 0.723185 5.24067 0.824857 5.15745C0.92653 5.07422 1.05049 5.01672 1.18433 4.9907L5.65469 4.1118L7.95791 0.518382V0.52296Z" fill="#141C25" fill-opacity="0.1"/>
</svg>
