<svg width="48" height="49" viewBox="0 0 48 49" fill="none" xmlns="http://www.w3.org/2000/svg">
<path d="M45.6 0C44.9635 0 44.353 0.256891 43.9029 0.714161C43.4529 1.17143 43.2 1.79162 43.2 2.4383V7.31489H38.4V2.4383C38.4 1.79162 38.1471 1.17143 37.6971 0.714161C37.247 0.256891 36.6365 0 36 0C35.3635 0 34.753 0.256891 34.3029 0.714161C33.8529 1.17143 33.6 1.79162 33.6 2.4383V4.8766H14.4V2.4383C14.4 1.79162 14.1471 1.17143 13.6971 0.714161C13.247 0.256891 12.6365 0 12 0C11.3635 0 10.753 0.256891 10.3029 0.714161C9.85286 1.17143 9.6 1.79162 9.6 2.4383V7.31489H4.8V2.4383C4.8 1.79162 4.54714 1.17143 4.09706 0.714161C3.64697 0.256891 3.03652 0 2.4 0C1.76348 0 1.15303 0.256891 0.702944 0.714161C0.252856 1.17143 0 1.79162 0 2.4383V46.3277C0 46.9743 0.252856 47.5945 0.702944 48.0518C1.15303 48.5091 1.76348 48.766 2.4 48.766C3.03652 48.766 3.64697 48.5091 4.09706 48.0518C4.54714 47.5945 4.8 46.9743 4.8 46.3277V41.4511H9.6V46.3277C9.6 46.9743 9.85286 47.5945 10.3029 48.0518C10.753 48.5091 11.3635 48.766 12 48.766C12.6365 48.766 13.247 48.5091 13.6971 48.0518C14.1471 47.5945 14.4 46.9743 14.4 46.3277V43.8894H33.6V46.3277C33.6 46.9743 33.8529 47.5945 34.3029 48.0518C34.753 48.5091 35.3635 48.766 36 48.766C36.6365 48.766 37.247 48.5091 37.6971 48.0518C38.1471 47.5945 38.4 46.9743 38.4 46.3277V41.4511H43.2V46.3277C43.2 46.9743 43.4529 47.5945 43.9029 48.0518C44.353 48.5091 44.9635 48.766 45.6 48.766C46.2365 48.766 46.847 48.5091 47.2971 48.0518C47.7471 47.5945 48 46.9743 48 46.3277V2.4383C48 1.79162 47.7471 1.17143 47.2971 0.714161C46.847 0.256891 46.2365 0 45.6 0ZM9.6 36.5745H4.8V31.6979H9.6V36.5745ZM9.6 26.8213H4.8V21.9447H9.6V26.8213ZM9.6 17.0681H4.8V12.1915H9.6V17.0681ZM33.6 39.0128H14.4V26.8213H33.6V39.0128ZM33.6 21.9447H14.4V9.75319H33.6V21.9447ZM43.2 36.5745H38.4V31.6979H43.2V36.5745ZM43.2 26.8213H38.4V21.9447H43.2V26.8213ZM43.2 17.0681H38.4V12.1915H43.2V17.0681Z" fill="white" fill-opacity="0.4"/>
</svg>
