<svg width="10" height="9" viewBox="0 0 10 9" fill="none" xmlns="http://www.w3.org/2000/svg">
<path fill-rule="evenodd" clip-rule="evenodd" d="M4.5814 0.226875C4.62399 0.157857 4.68507 0.100579 4.75853 0.0607664C4.83199 0.0209535 4.91525 0 5 0C5.08475 0 5.16801 0.0209535 5.24147 0.0607664C5.31493 0.100579 5.37601 0.157857 5.4186 0.226875L6.84623 2.53693L9.61714 3.10194C9.7001 3.11866 9.77693 3.15563 9.83995 3.20913C9.90297 3.26263 9.94997 3.33079 9.97622 3.40679C10.0025 3.48278 10.0071 3.56394 9.98957 3.64213C9.97205 3.72033 9.93303 3.79282 9.87642 3.85234L7.98646 5.84458L8.27386 8.49305C8.2822 8.57241 8.2683 8.65245 8.23356 8.72518C8.19881 8.79791 8.14443 8.86079 8.07583 8.90754C8.00724 8.95429 7.92683 8.98328 7.84263 8.99161C7.75843 8.99995 7.67338 8.98735 7.59597 8.95506L5 7.8839L2.40716 8.96094C2.32974 8.99323 2.24469 9.00584 2.16049 8.9975C2.07629 8.98916 1.99588 8.96017 1.92729 8.91342C1.8587 8.86667 1.80431 8.8038 1.76957 8.73107C1.73482 8.65834 1.72093 8.5783 1.72927 8.49893L2.01667 5.85046L0.123579 3.84939C0.066966 3.78987 0.0279481 3.71739 0.0104324 3.63919C-0.00708321 3.561 -0.00248177 3.47984 0.023776 3.40384C0.0500338 3.32785 0.0970262 3.25969 0.160047 3.20619C0.223068 3.15269 0.299905 3.11572 0.382863 3.09899L3.15377 2.53399L4.5814 0.223932V0.226875Z" fill="white" fill-opacity="0.4"/>
</svg>
