<svg width="13" height="13" viewBox="0 0 13 13" fill="none" xmlns="http://www.w3.org/2000/svg">
<path d="M1.08378 7.58337L9.3097 7.58336L5.73322 11.1446C5.52914 11.3484 5.41448 11.6249 5.41448 11.9131C5.41448 12.2014 5.52914 12.4778 5.73322 12.6817C5.9373 12.8855 6.21409 13 6.5027 13C6.79132 13 7.06811 12.8855 7.27219 12.6817L12.6911 7.26946C12.7898 7.16651 12.8671 7.04512 12.9187 6.91225C13.0271 6.64872 13.0271 6.35313 12.9187 6.0896C12.8671 5.95672 12.7898 5.83533 12.6911 5.73239L7.27219 0.320185C7.17144 0.21873 7.05157 0.1382 6.9195 0.0832458C6.78743 0.0282922 6.64577 -3.9817e-07 6.5027 -3.85663e-07C6.35963 -3.73155e-07 6.21797 0.0282923 6.0859 0.0832459C5.95383 0.1382 5.83397 0.21873 5.73321 0.320185C5.63163 0.420812 5.55101 0.54053 5.49598 0.672435C5.44096 0.804341 5.41263 0.945822 5.41263 1.08872C5.41263 1.23161 5.44096 1.37309 5.49598 1.505C5.55101 1.6369 5.63163 1.75662 5.73321 1.85725L9.3097 5.41848L1.08378 5.41848C0.796347 5.41848 0.520682 5.53253 0.317433 5.73552C0.114184 5.93852 3.60409e-07 6.21384 3.85507e-07 6.50092C4.10604e-07 6.78801 0.114184 7.06333 0.317433 7.26633C0.520682 7.46932 0.796347 7.58337 1.08378 7.58337Z" fill="#141C25"/>
</svg>
