<svg width="17" height="24" viewBox="0 0 17 24" fill="none" xmlns="http://www.w3.org/2000/svg">
<path d="M11.2031 4.1658H5.26562C4.87194 4.1658 4.49439 4.3217 4.21601 4.59921C3.93764 4.87672 3.78125 5.2531 3.78125 5.64555V16.9903L8.23438 13.0443L12.6875 16.9903V5.64555C12.6875 5.2531 12.5311 4.87672 12.2527 4.59921C11.9744 4.3217 11.5968 4.1658 11.2031 4.1658Z" fill="#FD9E02"/>
<path d="M1 21.0708C1 21.4678 1.2348 21.8272 1.59832 21.9866C1.96185 22.1461 2.38527 22.0754 2.67731 21.8065L8.23438 16.6905L13.7914 21.8065C14.0835 22.0754 14.5069 22.1461 14.8704 21.9866C15.234 21.8272 15.4688 21.4678 15.4688 21.0708V4.56936C15.4688 3.74441 15.1527 2.94648 14.5795 2.35282C14.0051 1.75796 13.2185 1.41699 12.3906 1.41699H4.07812C3.2502 1.41699 2.4636 1.75796 1.88926 2.35282C1.31608 2.94648 1 3.7444 1 4.56936V21.0708Z" stroke="black" stroke-width="2" stroke-linecap="round" stroke-linejoin="round"/>
</svg>
